<mxfile host="app.diagrams.net" agent="Mozilla/5.0 (Windows NT 10.0; Win64; x64) AppleWebKit/537.36 (KHTML, like Gecko) Chrome/134.0.0.0 Safari/537.36" version="26.1.1">
  <diagram name="Page-1" id="IU6ZUdJqJSHrYjGExh0F">
    <mxGraphModel dx="2284" dy="1838" grid="1" gridSize="10" guides="1" tooltips="1" connect="1" arrows="1" fold="1" page="1" pageScale="1" pageWidth="850" pageHeight="1100" math="0" shadow="0">
      <root>
        <mxCell id="0" />
        <mxCell id="1" parent="0" />
        <mxCell id="GbqNivuJ9uRguDAgTQ7c-4" value="" style="rounded=0;whiteSpace=wrap;html=1;" parent="1" vertex="1">
          <mxGeometry x="-210" y="-30" width="1180" height="710" as="geometry" />
        </mxCell>
        <mxCell id="GbqNivuJ9uRguDAgTQ7c-5" value="" style="rounded=0;whiteSpace=wrap;html=1;" parent="1" vertex="1">
          <mxGeometry x="-200" y="130" width="160" height="520" as="geometry" />
        </mxCell>
        <mxCell id="GbqNivuJ9uRguDAgTQ7c-6" value="" style="rounded=0;whiteSpace=wrap;html=1;" parent="1" vertex="1">
          <mxGeometry x="-60" y="130" width="20" height="520" as="geometry" />
        </mxCell>
        <mxCell id="GbqNivuJ9uRguDAgTQ7c-7" value="" style="shape=process;whiteSpace=wrap;html=1;backgroundOutline=1;rotation=-90;fillColor=#fad7ac;strokeColor=#b46504;" parent="1" vertex="1">
          <mxGeometry x="-110" y="400" width="120" height="20" as="geometry" />
        </mxCell>
        <mxCell id="GbqNivuJ9uRguDAgTQ7c-8" value="" style="rounded=0;whiteSpace=wrap;html=1;" parent="1" vertex="1">
          <mxGeometry x="-190" y="140" width="120" height="20" as="geometry" />
        </mxCell>
        <mxCell id="GbqNivuJ9uRguDAgTQ7c-9" value="" style="rounded=0;whiteSpace=wrap;html=1;" parent="1" vertex="1">
          <mxGeometry x="-190" y="160" width="120" height="20" as="geometry" />
        </mxCell>
        <mxCell id="GbqNivuJ9uRguDAgTQ7c-10" value="" style="rounded=0;whiteSpace=wrap;html=1;" parent="1" vertex="1">
          <mxGeometry x="-190" y="180" width="120" height="20" as="geometry" />
        </mxCell>
        <mxCell id="GbqNivuJ9uRguDAgTQ7c-14" value="" style="rounded=0;whiteSpace=wrap;html=1;" parent="1" vertex="1">
          <mxGeometry x="-190" y="200" width="120" height="20" as="geometry" />
        </mxCell>
        <mxCell id="GbqNivuJ9uRguDAgTQ7c-15" value="" style="rounded=0;whiteSpace=wrap;html=1;" parent="1" vertex="1">
          <mxGeometry x="-190" y="220" width="120" height="20" as="geometry" />
        </mxCell>
        <mxCell id="GbqNivuJ9uRguDAgTQ7c-16" value="" style="rounded=0;whiteSpace=wrap;html=1;" parent="1" vertex="1">
          <mxGeometry x="-190" y="240" width="120" height="20" as="geometry" />
        </mxCell>
        <mxCell id="GbqNivuJ9uRguDAgTQ7c-17" value="" style="rounded=0;whiteSpace=wrap;html=1;" parent="1" vertex="1">
          <mxGeometry x="-190" y="260" width="120" height="20" as="geometry" />
        </mxCell>
        <mxCell id="GbqNivuJ9uRguDAgTQ7c-18" value="" style="rounded=0;whiteSpace=wrap;html=1;" parent="1" vertex="1">
          <mxGeometry x="-190" y="280" width="120" height="20" as="geometry" />
        </mxCell>
        <mxCell id="GbqNivuJ9uRguDAgTQ7c-19" value="" style="rounded=0;whiteSpace=wrap;html=1;" parent="1" vertex="1">
          <mxGeometry x="-190" y="300" width="120" height="20" as="geometry" />
        </mxCell>
        <mxCell id="GbqNivuJ9uRguDAgTQ7c-20" value="" style="rounded=0;whiteSpace=wrap;html=1;" parent="1" vertex="1">
          <mxGeometry x="-190" y="320" width="120" height="20" as="geometry" />
        </mxCell>
        <mxCell id="GbqNivuJ9uRguDAgTQ7c-21" value="" style="rounded=0;whiteSpace=wrap;html=1;" parent="1" vertex="1">
          <mxGeometry x="-190" y="340" width="120" height="20" as="geometry" />
        </mxCell>
        <mxCell id="GbqNivuJ9uRguDAgTQ7c-22" value="" style="rounded=0;whiteSpace=wrap;html=1;" parent="1" vertex="1">
          <mxGeometry x="-190" y="360" width="120" height="20" as="geometry" />
        </mxCell>
        <mxCell id="GbqNivuJ9uRguDAgTQ7c-23" value="" style="rounded=0;whiteSpace=wrap;html=1;" parent="1" vertex="1">
          <mxGeometry x="-190" y="380" width="120" height="20" as="geometry" />
        </mxCell>
        <mxCell id="GbqNivuJ9uRguDAgTQ7c-24" value="" style="rounded=0;whiteSpace=wrap;html=1;" parent="1" vertex="1">
          <mxGeometry x="-190" y="400" width="120" height="20" as="geometry" />
        </mxCell>
        <mxCell id="GbqNivuJ9uRguDAgTQ7c-25" value="" style="rounded=0;whiteSpace=wrap;html=1;" parent="1" vertex="1">
          <mxGeometry x="-190" y="420" width="120" height="20" as="geometry" />
        </mxCell>
        <mxCell id="GbqNivuJ9uRguDAgTQ7c-26" value="" style="rounded=0;whiteSpace=wrap;html=1;" parent="1" vertex="1">
          <mxGeometry x="-190" y="440" width="120" height="20" as="geometry" />
        </mxCell>
        <mxCell id="GbqNivuJ9uRguDAgTQ7c-27" value="" style="rounded=0;whiteSpace=wrap;html=1;" parent="1" vertex="1">
          <mxGeometry x="-190" y="460" width="120" height="20" as="geometry" />
        </mxCell>
        <mxCell id="GbqNivuJ9uRguDAgTQ7c-28" value="" style="rounded=0;whiteSpace=wrap;html=1;" parent="1" vertex="1">
          <mxGeometry x="-190" y="480" width="120" height="20" as="geometry" />
        </mxCell>
        <mxCell id="GbqNivuJ9uRguDAgTQ7c-29" value="" style="rounded=0;whiteSpace=wrap;html=1;" parent="1" vertex="1">
          <mxGeometry x="-190" y="500" width="120" height="20" as="geometry" />
        </mxCell>
        <mxCell id="GbqNivuJ9uRguDAgTQ7c-30" value="" style="rounded=0;whiteSpace=wrap;html=1;" parent="1" vertex="1">
          <mxGeometry x="-190" y="520" width="120" height="20" as="geometry" />
        </mxCell>
        <mxCell id="GbqNivuJ9uRguDAgTQ7c-31" value="" style="rounded=0;whiteSpace=wrap;html=1;" parent="1" vertex="1">
          <mxGeometry x="-190" y="540" width="120" height="20" as="geometry" />
        </mxCell>
        <mxCell id="GbqNivuJ9uRguDAgTQ7c-32" value="" style="rounded=0;whiteSpace=wrap;html=1;" parent="1" vertex="1">
          <mxGeometry x="-190" y="560" width="120" height="20" as="geometry" />
        </mxCell>
        <mxCell id="GbqNivuJ9uRguDAgTQ7c-33" value="" style="rounded=0;whiteSpace=wrap;html=1;" parent="1" vertex="1">
          <mxGeometry x="-190" y="580" width="120" height="20" as="geometry" />
        </mxCell>
        <mxCell id="GbqNivuJ9uRguDAgTQ7c-34" value="" style="rounded=0;whiteSpace=wrap;html=1;" parent="1" vertex="1">
          <mxGeometry x="-190" y="600" width="120" height="20" as="geometry" />
        </mxCell>
        <mxCell id="GbqNivuJ9uRguDAgTQ7c-35" value="" style="rounded=0;whiteSpace=wrap;html=1;" parent="1" vertex="1">
          <mxGeometry x="-190" y="620" width="120" height="20" as="geometry" />
        </mxCell>
        <mxCell id="GbqNivuJ9uRguDAgTQ7c-36" value="" style="rounded=0;whiteSpace=wrap;html=1;" parent="1" vertex="1">
          <mxGeometry x="-200" y="100" width="160" height="30" as="geometry" />
        </mxCell>
        <mxCell id="GbqNivuJ9uRguDAgTQ7c-37" value="Patent No" style="text;html=1;align=center;verticalAlign=middle;whiteSpace=wrap;rounded=0;" parent="1" vertex="1">
          <mxGeometry x="-200" y="100" width="160" height="30" as="geometry" />
        </mxCell>
        <mxCell id="GbqNivuJ9uRguDAgTQ7c-38" value="" style="rounded=1;whiteSpace=wrap;html=1;" parent="1" vertex="1">
          <mxGeometry x="-200" y="50" width="160" height="40" as="geometry" />
        </mxCell>
        <mxCell id="GbqNivuJ9uRguDAgTQ7c-39" value="Back To List" style="html=1;whiteSpace=wrap;" parent="1" vertex="1">
          <mxGeometry x="-200" y="55" width="160" height="30" as="geometry" />
        </mxCell>
        <mxCell id="GbqNivuJ9uRguDAgTQ7c-40" value="" style="rounded=0;whiteSpace=wrap;html=1;" parent="1" vertex="1">
          <mxGeometry x="-20" y="50" width="960" height="600" as="geometry" />
        </mxCell>
        <mxCell id="GbqNivuJ9uRguDAgTQ7c-41" value="" style="shape=process;whiteSpace=wrap;html=1;backgroundOutline=1;rotation=90;fillColor=#fad7ac;strokeColor=#b46504;" parent="1" vertex="1">
          <mxGeometry x="895" y="285" width="120" height="30" as="geometry" />
        </mxCell>
        <mxCell id="GbqNivuJ9uRguDAgTQ7c-42" value="" style="rounded=1;whiteSpace=wrap;html=1;" parent="1" vertex="1">
          <mxGeometry x="-20" y="10" width="450" height="30" as="geometry" />
        </mxCell>
        <mxCell id="GbqNivuJ9uRguDAgTQ7c-44" value="" style="rounded=1;whiteSpace=wrap;html=1;" parent="1" vertex="1">
          <mxGeometry x="429.38" y="10" width="30.62" height="30" as="geometry" />
        </mxCell>
        <mxCell id="GbqNivuJ9uRguDAgTQ7c-43" value="" style="shape=step;perimeter=stepPerimeter;whiteSpace=wrap;html=1;fixedSize=1;rotation=90;size=8.75;" parent="1" vertex="1">
          <mxGeometry x="430.7" y="11.31" width="28.75" height="30.13" as="geometry" />
        </mxCell>
        <mxCell id="GbqNivuJ9uRguDAgTQ7c-45" value="" style="ellipse;whiteSpace=wrap;html=1;" parent="1" vertex="1">
          <mxGeometry x="897" y="-25" width="70" height="70" as="geometry" />
        </mxCell>
        <mxCell id="GbqNivuJ9uRguDAgTQ7c-46" value="" style="rounded=1;whiteSpace=wrap;html=1;fillColor=#bac8d3;strokeColor=#23445d;" parent="1" vertex="1">
          <mxGeometry x="-200" y="-20" width="160" height="60" as="geometry" />
        </mxCell>
        <mxCell id="GbqNivuJ9uRguDAgTQ7c-47" value="" style="rounded=0;whiteSpace=wrap;html=1;" parent="1" vertex="1">
          <mxGeometry x="428" y="60" width="37" height="580" as="geometry" />
        </mxCell>
        <mxCell id="GbqNivuJ9uRguDAgTQ7c-48" value="" style="rounded=0;whiteSpace=wrap;html=1;" parent="1" vertex="1">
          <mxGeometry x="490" y="100" width="420" height="440" as="geometry" />
        </mxCell>
        <mxCell id="GbqNivuJ9uRguDAgTQ7c-49" value="" style="rounded=0;whiteSpace=wrap;html=1;" parent="1" vertex="1">
          <mxGeometry x="490" y="560" width="80" height="60" as="geometry" />
        </mxCell>
        <mxCell id="GbqNivuJ9uRguDAgTQ7c-50" value="" style="rounded=0;whiteSpace=wrap;html=1;" parent="1" vertex="1">
          <mxGeometry x="580" y="560" width="80" height="60" as="geometry" />
        </mxCell>
        <mxCell id="GbqNivuJ9uRguDAgTQ7c-51" value="" style="rounded=0;whiteSpace=wrap;html=1;" parent="1" vertex="1">
          <mxGeometry x="670" y="560" width="80" height="60" as="geometry" />
        </mxCell>
        <mxCell id="GbqNivuJ9uRguDAgTQ7c-52" value="" style="rounded=0;whiteSpace=wrap;html=1;" parent="1" vertex="1">
          <mxGeometry x="760" y="560" width="80" height="60" as="geometry" />
        </mxCell>
        <mxCell id="GbqNivuJ9uRguDAgTQ7c-53" value="" style="rounded=0;whiteSpace=wrap;html=1;" parent="1" vertex="1">
          <mxGeometry x="850" y="560" width="80" height="60" as="geometry" />
        </mxCell>
        <mxCell id="GbqNivuJ9uRguDAgTQ7c-55" value="" style="shape=singleArrow;whiteSpace=wrap;html=1;" parent="1" vertex="1">
          <mxGeometry x="880" y="567.5" width="50" height="45" as="geometry" />
        </mxCell>
        <mxCell id="GbqNivuJ9uRguDAgTQ7c-56" value="" style="shape=singleArrow;whiteSpace=wrap;html=1;rotation=-180;" parent="1" vertex="1">
          <mxGeometry x="490" y="567.5" width="50" height="45" as="geometry" />
        </mxCell>
        <mxCell id="GbqNivuJ9uRguDAgTQ7c-57" value="" style="rounded=1;whiteSpace=wrap;html=1;" parent="1" vertex="1">
          <mxGeometry x="130" y="55" width="120" height="25" as="geometry" />
        </mxCell>
        <mxCell id="GbqNivuJ9uRguDAgTQ7c-58" value="" style="rounded=1;whiteSpace=wrap;html=1;" parent="1" vertex="1">
          <mxGeometry x="-17" y="90" width="440" height="30" as="geometry" />
        </mxCell>
      </root>
    </mxGraphModel>
  </diagram>
</mxfile>
